# xmcd CD database file
#
# Track frame offsets:
#	182
#	15745
#	28567
#	40797
#	53907
#	67802
#	80755
#	96262
#	108952
#	123527
#	135635
#	150602
#	162915
#	178867
#	192022
#	206117
#	220495
#	235277
#	247940
#	260837
#	274860
#	289012
#
# Disc length: 4055 seconds
#
# Revision: 0
# Processed by: cddbd v1.4PL0 Copyright (c) Steve Scherf et al.
# Submitted via: CDex 1.50beta8
#
DISCID=410fd516
DTITLE=Fats Waller - An introduction to Fats Waller (1928-1942)
DYEAR=1900
DGENRE=Jazz
TTITLE0=Willow tree
TTITLE1=Handful of keys
TTITLE2=The minor drag
TTITLE3=Numb fumblin'
TTITLE4=Ain't misbehavin'
TTITLE5=I've got a feeling I'm falling
TTITLE6=Valentine stomp
TTITLE7=How can you face me ?
TTITLE8=You're not the only oyster in the stew
TTITLE9=Honesuckle rose
TTITLE10=I'm growing fonder of you
TTITLE11=Alligator crawl
TTITLE12=I'm gonna sit right down and write myself a letter
TTITLE13=It's a sin to tell a lie
TTITLE14=The meanest thing you ever did was kiss me
TTITLE15=Lost love
TTITLE16=Stardust
TTITLE17=The joint is jumpin'
TTITLE18=Go down Moses
TTITLE19=Two sleepy people
TTITLE20=Your feet's too big
TTITLE21=The jitterbug waltz
EXTD=
EXTT0=
EXTT1=
EXTT2=
EXTT3=
EXTT4=
EXTT5=
EXTT6=
EXTT7=
EXTT8=
EXTT9=
EXTT10=
EXTT11=
EXTT12=
EXTT13=
EXTT14=
EXTT15=
EXTT16=
EXTT17=
EXTT18=
EXTT19=
EXTT20=
EXTT21=
PLAYORDER=
